<mxfile host="app.diagrams.net" agent="Mozilla/5.0 (Windows NT 10.0; Win64; x64) AppleWebKit/537.36 (KHTML, like Gecko) Chrome/129.0.0.0 Safari/537.36" version="24.7.7">
  <diagram name="Page-1" id="Q9pKJCSRnNOWljh97Tj6">
    <mxGraphModel dx="327" dy="343" grid="1" gridSize="10" guides="1" tooltips="1" connect="1" arrows="1" fold="1" page="1" pageScale="1" pageWidth="850" pageHeight="1100" math="0" shadow="0">
      <root>
        <mxCell id="0" />
        <mxCell id="1" parent="0" />
        <mxCell id="Rcz48ttwoFu_a0MbweSv-11" value="" style="edgeStyle=orthogonalEdgeStyle;rounded=0;orthogonalLoop=1;jettySize=auto;html=1;" edge="1" parent="1" source="Rcz48ttwoFu_a0MbweSv-1" target="Rcz48ttwoFu_a0MbweSv-4">
          <mxGeometry relative="1" as="geometry" />
        </mxCell>
        <mxCell id="Rcz48ttwoFu_a0MbweSv-1" value="Crawling" style="rounded=1;whiteSpace=wrap;html=1;" vertex="1" parent="1">
          <mxGeometry x="80" y="90" width="120" height="50" as="geometry" />
        </mxCell>
        <mxCell id="Rcz48ttwoFu_a0MbweSv-12" value="" style="edgeStyle=orthogonalEdgeStyle;rounded=0;orthogonalLoop=1;jettySize=auto;html=1;" edge="1" parent="1" source="Rcz48ttwoFu_a0MbweSv-4" target="Rcz48ttwoFu_a0MbweSv-5">
          <mxGeometry relative="1" as="geometry" />
        </mxCell>
        <mxCell id="Rcz48ttwoFu_a0MbweSv-4" value="Cleaning" style="rounded=1;whiteSpace=wrap;html=1;" vertex="1" parent="1">
          <mxGeometry x="220" y="90" width="120" height="50" as="geometry" />
        </mxCell>
        <mxCell id="Rcz48ttwoFu_a0MbweSv-13" value="" style="edgeStyle=orthogonalEdgeStyle;rounded=0;orthogonalLoop=1;jettySize=auto;html=1;" edge="1" parent="1" source="Rcz48ttwoFu_a0MbweSv-5" target="Rcz48ttwoFu_a0MbweSv-6">
          <mxGeometry relative="1" as="geometry" />
        </mxCell>
        <mxCell id="Rcz48ttwoFu_a0MbweSv-5" value="Tokenize" style="rounded=1;whiteSpace=wrap;html=1;" vertex="1" parent="1">
          <mxGeometry x="365" y="90" width="120" height="50" as="geometry" />
        </mxCell>
        <mxCell id="Rcz48ttwoFu_a0MbweSv-14" value="" style="edgeStyle=orthogonalEdgeStyle;rounded=0;orthogonalLoop=1;jettySize=auto;html=1;" edge="1" parent="1" source="Rcz48ttwoFu_a0MbweSv-6" target="Rcz48ttwoFu_a0MbweSv-7">
          <mxGeometry relative="1" as="geometry" />
        </mxCell>
        <mxCell id="Rcz48ttwoFu_a0MbweSv-6" value="Stopwords" style="rounded=1;whiteSpace=wrap;html=1;" vertex="1" parent="1">
          <mxGeometry x="510" y="90" width="120" height="50" as="geometry" />
        </mxCell>
        <mxCell id="Rcz48ttwoFu_a0MbweSv-15" value="" style="edgeStyle=orthogonalEdgeStyle;rounded=0;orthogonalLoop=1;jettySize=auto;html=1;" edge="1" parent="1" source="Rcz48ttwoFu_a0MbweSv-7" target="Rcz48ttwoFu_a0MbweSv-8">
          <mxGeometry relative="1" as="geometry" />
        </mxCell>
        <mxCell id="Rcz48ttwoFu_a0MbweSv-7" value="Stemming" style="rounded=1;whiteSpace=wrap;html=1;" vertex="1" parent="1">
          <mxGeometry x="510" y="160" width="120" height="50" as="geometry" />
        </mxCell>
        <mxCell id="Rcz48ttwoFu_a0MbweSv-16" value="" style="edgeStyle=orthogonalEdgeStyle;rounded=0;orthogonalLoop=1;jettySize=auto;html=1;" edge="1" parent="1" source="Rcz48ttwoFu_a0MbweSv-8" target="Rcz48ttwoFu_a0MbweSv-9">
          <mxGeometry relative="1" as="geometry" />
        </mxCell>
        <mxCell id="Rcz48ttwoFu_a0MbweSv-8" value="Joining" style="rounded=1;whiteSpace=wrap;html=1;" vertex="1" parent="1">
          <mxGeometry x="365" y="160" width="120" height="50" as="geometry" />
        </mxCell>
        <mxCell id="Rcz48ttwoFu_a0MbweSv-9" value="Bag of Words" style="rounded=1;whiteSpace=wrap;html=1;" vertex="1" parent="1">
          <mxGeometry x="220" y="160" width="120" height="50" as="geometry" />
        </mxCell>
        <mxCell id="Rcz48ttwoFu_a0MbweSv-10" value="Modelling" style="rounded=1;whiteSpace=wrap;html=1;" vertex="1" parent="1">
          <mxGeometry x="200" y="230" width="120" height="50" as="geometry" />
        </mxCell>
        <mxCell id="Rcz48ttwoFu_a0MbweSv-19" value="" style="endArrow=classic;html=1;rounded=0;exitX=0.5;exitY=1;exitDx=0;exitDy=0;entryX=1;entryY=0.5;entryDx=0;entryDy=0;" edge="1" parent="1" source="Rcz48ttwoFu_a0MbweSv-9" target="Rcz48ttwoFu_a0MbweSv-10">
          <mxGeometry width="50" height="50" relative="1" as="geometry">
            <mxPoint x="190" y="280" as="sourcePoint" />
            <mxPoint x="330" y="260" as="targetPoint" />
            <Array as="points">
              <mxPoint x="280" y="220" />
              <mxPoint x="320" y="220" />
              <mxPoint x="350" y="220" />
              <mxPoint x="350" y="255" />
            </Array>
          </mxGeometry>
        </mxCell>
      </root>
    </mxGraphModel>
  </diagram>
</mxfile>
